<svg width="908.5" height="1092.5" viewBox="0 0 908.5 1092.5" xmlns="http://www.w3.org/2000/svg">
<style>
    svg {
        font-family: SFMono-Regular,Consolas,Liberation Mono,Menlo,monospace;
        font-size: 14px;
        font-kerning: normal;
        text-rendering: optimizeLegibility;
        fill: #24292e;
    }

    rect {
        fill: #f6f8fa;
    }

    .held {
        fill: #fdd;
    }

    .trans+text {
        opacity: 30%;
    }
</style>
<rect rx="6" ry="6" x="29.5" y="24.5" width="55" height="45" class="" />
<text text-anchor="middle" dominant-baseline="middle" x="57.0" y="47.0">esc</text>
<rect rx="6" ry="6" x="88.5" y="24.5" width="55" height="45" class="" />
<text text-anchor="middle" dominant-baseline="middle" x="116.0" y="47.0">1</text>
<rect rx="6" ry="6" x="147.5" y="24.5" width="55" height="45" class="" />
<text text-anchor="middle" dominant-baseline="middle" x="175.0" y="47.0">2</text>
<rect rx="6" ry="6" x="206.5" y="24.5" width="55" height="45" class="" />
<text text-anchor="middle" dominant-baseline="middle" x="234.0" y="47.0">3</text>
<rect rx="6" ry="6" x="265.5" y="24.5" width="55" height="45" class="" />
<text text-anchor="middle" dominant-baseline="middle" x="293.0" y="47.0">4</text>
<rect rx="6" ry="6" x="324.5" y="24.5" width="55" height="45" class="" />
<text text-anchor="middle" dominant-baseline="middle" x="352.0" y="47.0">5</text>
<rect rx="6" ry="6" x="29.5" y="73.5" width="55" height="45" class="" />
<text text-anchor="middle" dominant-baseline="middle" x="57.0" y="96.0">tab</text>
<rect rx="6" ry="6" x="88.5" y="73.5" width="55" height="45" class="" />
<text text-anchor="middle" dominant-baseline="middle" x="116.0" y="96.0">q</text>
<rect rx="6" ry="6" x="147.5" y="73.5" width="55" height="45" class="" />
<text text-anchor="middle" dominant-baseline="middle" x="175.0" y="96.0">w</text>
<rect rx="6" ry="6" x="206.5" y="73.5" width="55" height="45" class="" />
<text text-anchor="middle" dominant-baseline="middle" x="234.0" y="96.0">e</text>
<rect rx="6" ry="6" x="265.5" y="73.5" width="55" height="45" class="" />
<text text-anchor="middle" dominant-baseline="middle" x="293.0" y="96.0">r</text>
<rect rx="6" ry="6" x="324.5" y="73.5" width="55" height="45" class="" />
<text text-anchor="middle" dominant-baseline="middle" x="352.0" y="96.0">t</text>
<rect rx="6" ry="6" x="29.5" y="122.5" width="55" height="45" class="" />
<text text-anchor="middle" dominant-baseline="middle" x="57.0" y="145.0">ctrl</text>
<rect rx="6" ry="6" x="88.5" y="122.5" width="55" height="45" class="" />
<text text-anchor="middle" dominant-baseline="middle" x="116.0" y="145.0">a</text>
<rect rx="6" ry="6" x="147.5" y="122.5" width="55" height="45" class="" />
<text text-anchor="middle" dominant-baseline="middle" x="175.0" y="145.0">s</text>
<rect rx="6" ry="6" x="206.5" y="122.5" width="55" height="45" class="" />
<text text-anchor="middle" dominant-baseline="middle" x="234.0" y="145.0">d</text>
<rect rx="6" ry="6" x="265.5" y="122.5" width="55" height="45" class="" />
<text text-anchor="middle" dominant-baseline="middle" x="293.0" y="145.0">f</text>
<rect rx="6" ry="6" x="324.5" y="122.5" width="55" height="45" class="" />
<text text-anchor="middle" dominant-baseline="middle" x="352.0" y="145.0">g</text>
<rect rx="6" ry="6" x="29.5" y="171.5" width="55" height="45" class="" />
<text text-anchor="middle" dominant-baseline="middle" x="57.0" y="194.0">shift</text>
<rect rx="6" ry="6" x="88.5" y="171.5" width="55" height="45" class="" />
<text text-anchor="middle" dominant-baseline="middle" x="116.0" y="194.0">z</text>
<rect rx="6" ry="6" x="147.5" y="171.5" width="55" height="45" class="" />
<text text-anchor="middle" dominant-baseline="middle" x="175.0" y="194.0">x</text>
<rect rx="6" ry="6" x="206.5" y="171.5" width="55" height="45" class="" />
<text text-anchor="middle" dominant-baseline="middle" x="234.0" y="194.0">c</text>
<rect rx="6" ry="6" x="265.5" y="171.5" width="55" height="45" class="" />
<text text-anchor="middle" dominant-baseline="middle" x="293.0" y="194.0">v</text>
<rect rx="6" ry="6" x="324.5" y="171.5" width="55" height="45" class="" />
<text text-anchor="middle" dominant-baseline="middle" x="352.0" y="194.0">b</text>
<rect rx="6" ry="6" x="383.5" y="171.5" width="55" height="45" class="" />
<text text-anchor="middle" dominant-baseline="middle" x="411.0" y="194.0">[</text>
<rect rx="6" ry="6" x="529.0" y="24.5" width="55" height="45" class="" />
<text text-anchor="middle" dominant-baseline="middle" x="556.5" y="47.0">6</text>
<rect rx="6" ry="6" x="588.0" y="24.5" width="55" height="45" class="" />
<text text-anchor="middle" dominant-baseline="middle" x="615.5" y="47.0">7</text>
<rect rx="6" ry="6" x="647.0" y="24.5" width="55" height="45" class="" />
<text text-anchor="middle" dominant-baseline="middle" x="674.5" y="47.0">8</text>
<rect rx="6" ry="6" x="706.0" y="24.5" width="55" height="45" class="" />
<text text-anchor="middle" dominant-baseline="middle" x="733.5" y="47.0">9</text>
<rect rx="6" ry="6" x="765.0" y="24.5" width="55" height="45" class="" />
<text text-anchor="middle" dominant-baseline="middle" x="792.5" y="47.0">0</text>
<rect rx="6" ry="6" x="824.0" y="24.5" width="55" height="45" class="" />
<text text-anchor="middle" dominant-baseline="middle" x="851.5" y="47.0">`</text>
<rect rx="6" ry="6" x="529.0" y="73.5" width="55" height="45" class="" />
<text text-anchor="middle" dominant-baseline="middle" x="556.5" y="96.0">y</text>
<rect rx="6" ry="6" x="588.0" y="73.5" width="55" height="45" class="" />
<text text-anchor="middle" dominant-baseline="middle" x="615.5" y="96.0">u</text>
<rect rx="6" ry="6" x="647.0" y="73.5" width="55" height="45" class="" />
<text text-anchor="middle" dominant-baseline="middle" x="674.5" y="96.0">i</text>
<rect rx="6" ry="6" x="706.0" y="73.5" width="55" height="45" class="" />
<text text-anchor="middle" dominant-baseline="middle" x="733.5" y="96.0">o</text>
<rect rx="6" ry="6" x="765.0" y="73.5" width="55" height="45" class="" />
<text text-anchor="middle" dominant-baseline="middle" x="792.5" y="96.0">p</text>
<rect rx="6" ry="6" x="824.0" y="73.5" width="55" height="45" class="" />
<text text-anchor="middle" dominant-baseline="middle" x="851.5" y="96.0">-</text>
<rect rx="6" ry="6" x="529.0" y="122.5" width="55" height="45" class="" />
<text text-anchor="middle" dominant-baseline="middle" x="556.5" y="145.0">h</text>
<rect rx="6" ry="6" x="588.0" y="122.5" width="55" height="45" class="" />
<text text-anchor="middle" dominant-baseline="middle" x="615.5" y="145.0">j</text>
<rect rx="6" ry="6" x="647.0" y="122.5" width="55" height="45" class="" />
<text text-anchor="middle" dominant-baseline="middle" x="674.5" y="145.0">k</text>
<rect rx="6" ry="6" x="706.0" y="122.5" width="55" height="45" class="" />
<text text-anchor="middle" dominant-baseline="middle" x="733.5" y="145.0">l</text>
<rect rx="6" ry="6" x="765.0" y="122.5" width="55" height="45" class="" />
<text text-anchor="middle" dominant-baseline="middle" x="792.5" y="145.0">;</text>
<rect rx="6" ry="6" x="824.0" y="122.5" width="55" height="45" class="" />
<text text-anchor="middle" dominant-baseline="middle" x="851.5" y="145.0">'</text>
<rect rx="6" ry="6" x="470.0" y="171.5" width="55" height="45" class="" />
<text text-anchor="middle" dominant-baseline="middle" x="497.5" y="194.0">]</text>
<rect rx="6" ry="6" x="529.0" y="171.5" width="55" height="45" class="" />
<text text-anchor="middle" dominant-baseline="middle" x="556.5" y="194.0">n</text>
<rect rx="6" ry="6" x="588.0" y="171.5" width="55" height="45" class="" />
<text text-anchor="middle" dominant-baseline="middle" x="615.5" y="194.0">m</text>
<rect rx="6" ry="6" x="647.0" y="171.5" width="55" height="45" class="" />
<text text-anchor="middle" dominant-baseline="middle" x="674.5" y="194.0">,</text>
<rect rx="6" ry="6" x="706.0" y="171.5" width="55" height="45" class="" />
<text text-anchor="middle" dominant-baseline="middle" x="733.5" y="194.0">.</text>
<rect rx="6" ry="6" x="765.0" y="171.5" width="55" height="45" class="" />
<text text-anchor="middle" dominant-baseline="middle" x="792.5" y="194.0">/</text>
<rect rx="6" ry="6" x="824.0" y="171.5" width="55" height="45" class="" />
<text text-anchor="middle" dominant-baseline="middle" x="851.5" y="194.0">shift</text>
<rect rx="6" ry="6" x="206.5" y="220.5" width="55" height="45" class="" />
<text text-anchor="middle" dominant-baseline="middle" x="234.0" y="243.0">alt</text>
<rect rx="6" ry="6" x="265.5" y="220.5" width="55" height="45" class="" />
<text text-anchor="middle" dominant-baseline="middle" x="293.0" y="243.0">gui</text>
<rect rx="6" ry="6" x="324.5" y="220.5" width="55" height="45" class="" />
<text text-anchor="middle" dominant-baseline="middle" x="352.0" y="243.0">lower</text>
<rect rx="6" ry="6" x="383.5" y="220.5" width="55" height="45" class="" />
<text text-anchor="middle" dominant-baseline="middle" x="411.0" y="243.0">space</text>
<rect rx="6" ry="6" x="470.0" y="220.5" width="55" height="45" class="" />
<text text-anchor="middle" dominant-baseline="middle" x="497.5" y="243.0">enter</text>
<rect rx="6" ry="6" x="529.0" y="220.5" width="55" height="45" class="" />
<text text-anchor="middle" dominant-baseline="middle" x="556.5" y="243.0">raise</text>
<rect rx="6" ry="6" x="588.0" y="220.5" width="55" height="45" class="" />
<text text-anchor="middle" dominant-baseline="middle" x="615.5" y="243.0">bspc</text>
<rect rx="6" ry="6" x="647.0" y="220.5" width="55" height="45" class="" />
<text text-anchor="middle" dominant-baseline="middle" x="674.5" y="243.0">gui</text>
<rect rx="6" ry="6" x="29.5" y="292.0" width="55" height="45" class="" />
<text text-anchor="middle" dominant-baseline="middle" x="57.0" y="314.5">BT_CLR</text>
<rect rx="6" ry="6" x="88.5" y="292.0" width="55" height="45" class="" />
<text text-anchor="middle" dominant-baseline="middle" x="116.0" y="314.5">BT1</text>
<rect rx="6" ry="6" x="147.5" y="292.0" width="55" height="45" class="" />
<text text-anchor="middle" dominant-baseline="middle" x="175.0" y="314.5">BT2</text>
<rect rx="6" ry="6" x="206.5" y="292.0" width="55" height="45" class="" />
<text text-anchor="middle" dominant-baseline="middle" x="234.0" y="314.5">BT3</text>
<rect rx="6" ry="6" x="265.5" y="292.0" width="55" height="45" class="" />
<text text-anchor="middle" dominant-baseline="middle" x="293.0" y="314.5">BT4</text>
<rect rx="6" ry="6" x="324.5" y="292.0" width="55" height="45" class="" />
<text text-anchor="middle" dominant-baseline="middle" x="352.0" y="314.5">BT5</text>
<rect rx="6" ry="6" x="29.5" y="341.0" width="55" height="45" class="" />
<text text-anchor="middle" dominant-baseline="middle" x="57.0" y="363.5">f1</text>
<rect rx="6" ry="6" x="88.5" y="341.0" width="55" height="45" class="" />
<text text-anchor="middle" dominant-baseline="middle" x="116.0" y="363.5">f2</text>
<rect rx="6" ry="6" x="147.5" y="341.0" width="55" height="45" class="" />
<text text-anchor="middle" dominant-baseline="middle" x="175.0" y="363.5">f3</text>
<rect rx="6" ry="6" x="206.5" y="341.0" width="55" height="45" class="" />
<text text-anchor="middle" dominant-baseline="middle" x="234.0" y="363.5">f4</text>
<rect rx="6" ry="6" x="265.5" y="341.0" width="55" height="45" class="" />
<text text-anchor="middle" dominant-baseline="middle" x="293.0" y="363.5">f5</text>
<rect rx="6" ry="6" x="324.5" y="341.0" width="55" height="45" class="" />
<text text-anchor="middle" dominant-baseline="middle" x="352.0" y="363.5">f6</text>
<rect rx="6" ry="6" x="29.5" y="390.0" width="55" height="45" class="" />
<text text-anchor="middle" dominant-baseline="middle" x="57.0" y="412.5">`</text>
<rect rx="6" ry="6" x="88.5" y="390.0" width="55" height="45" class="" />
<text text-anchor="middle" dominant-baseline="middle" x="116.0" y="412.5">!</text>
<rect rx="6" ry="6" x="147.5" y="390.0" width="55" height="45" class="" />
<text text-anchor="middle" dominant-baseline="middle" x="175.0" y="412.5">@</text>
<rect rx="6" ry="6" x="206.5" y="390.0" width="55" height="45" class="" />
<text text-anchor="middle" dominant-baseline="middle" x="234.0" y="412.5">#</text>
<rect rx="6" ry="6" x="265.5" y="390.0" width="55" height="45" class="" />
<text text-anchor="middle" dominant-baseline="middle" x="293.0" y="412.5">$</text>
<rect rx="6" ry="6" x="324.5" y="390.0" width="55" height="45" class="" />
<text text-anchor="middle" dominant-baseline="middle" x="352.0" y="412.5">%</text>
<rect rx="6" ry="6" x="29.5" y="439.0" width="55" height="45" class="trans" />
<text text-anchor="middle" dominant-baseline="middle" x="57.0" y="461.5">shift</text>
<rect rx="6" ry="6" x="88.5" y="439.0" width="55" height="45" class="trans" />
<text text-anchor="middle" dominant-baseline="middle" x="116.0" y="461.5">z</text>
<rect rx="6" ry="6" x="147.5" y="439.0" width="55" height="45" class="trans" />
<text text-anchor="middle" dominant-baseline="middle" x="175.0" y="461.5">x</text>
<rect rx="6" ry="6" x="206.5" y="439.0" width="55" height="45" class="trans" />
<text text-anchor="middle" dominant-baseline="middle" x="234.0" y="461.5">c</text>
<rect rx="6" ry="6" x="265.5" y="439.0" width="55" height="45" class="trans" />
<text text-anchor="middle" dominant-baseline="middle" x="293.0" y="461.5">v</text>
<rect rx="6" ry="6" x="324.5" y="439.0" width="55" height="45" class="trans" />
<text text-anchor="middle" dominant-baseline="middle" x="352.0" y="461.5">b</text>
<rect rx="6" ry="6" x="383.5" y="439.0" width="55" height="45" class="trans" />
<text text-anchor="middle" dominant-baseline="middle" x="411.0" y="461.5">[</text>
<rect rx="6" ry="6" x="529.0" y="292.0" width="55" height="45" class="trans" />
<text text-anchor="middle" dominant-baseline="middle" x="556.5" y="314.5">6</text>
<rect rx="6" ry="6" x="588.0" y="292.0" width="55" height="45" class="trans" />
<text text-anchor="middle" dominant-baseline="middle" x="615.5" y="314.5">7</text>
<rect rx="6" ry="6" x="647.0" y="292.0" width="55" height="45" class="trans" />
<text text-anchor="middle" dominant-baseline="middle" x="674.5" y="314.5">8</text>
<rect rx="6" ry="6" x="706.0" y="292.0" width="55" height="45" class="trans" />
<text text-anchor="middle" dominant-baseline="middle" x="733.5" y="314.5">9</text>
<rect rx="6" ry="6" x="765.0" y="292.0" width="55" height="45" class="trans" />
<text text-anchor="middle" dominant-baseline="middle" x="792.5" y="314.5">0</text>
<rect rx="6" ry="6" x="824.0" y="292.0" width="55" height="45" class="trans" />
<text text-anchor="middle" dominant-baseline="middle" x="851.5" y="314.5">`</text>
<rect rx="6" ry="6" x="529.0" y="341.0" width="55" height="45" class="" />
<text text-anchor="middle" dominant-baseline="middle" x="556.5" y="363.5">f7</text>
<rect rx="6" ry="6" x="588.0" y="341.0" width="55" height="45" class="" />
<text text-anchor="middle" dominant-baseline="middle" x="615.5" y="363.5">f8</text>
<rect rx="6" ry="6" x="647.0" y="341.0" width="55" height="45" class="" />
<text text-anchor="middle" dominant-baseline="middle" x="674.5" y="363.5">f9</text>
<rect rx="6" ry="6" x="706.0" y="341.0" width="55" height="45" class="" />
<text text-anchor="middle" dominant-baseline="middle" x="733.5" y="363.5">f10</text>
<rect rx="6" ry="6" x="765.0" y="341.0" width="55" height="45" class="" />
<text text-anchor="middle" dominant-baseline="middle" x="792.5" y="363.5">f11</text>
<rect rx="6" ry="6" x="824.0" y="341.0" width="55" height="45" class="" />
<text text-anchor="middle" dominant-baseline="middle" x="851.5" y="363.5">f12</text>
<rect rx="6" ry="6" x="529.0" y="390.0" width="55" height="45" class="" />
<text text-anchor="middle" dominant-baseline="middle" x="556.5" y="412.5">^</text>
<rect rx="6" ry="6" x="588.0" y="390.0" width="55" height="45" class="" />
<text text-anchor="middle" dominant-baseline="middle" x="615.5" y="412.5">&#38;</text>
<rect rx="6" ry="6" x="647.0" y="390.0" width="55" height="45" class="" />
<text text-anchor="middle" dominant-baseline="middle" x="674.5" y="412.5">*</text>
<rect rx="6" ry="6" x="706.0" y="390.0" width="55" height="45" class="" />
<text text-anchor="middle" dominant-baseline="middle" x="733.5" y="412.5">(</text>
<rect rx="6" ry="6" x="765.0" y="390.0" width="55" height="45" class="" />
<text text-anchor="middle" dominant-baseline="middle" x="792.5" y="412.5">)</text>
<rect rx="6" ry="6" x="824.0" y="390.0" width="55" height="45" class="" />
<text text-anchor="middle" dominant-baseline="middle" x="851.5" y="412.5">~</text>
<rect rx="6" ry="6" x="470.0" y="439.0" width="55" height="45" class="trans" />
<text text-anchor="middle" dominant-baseline="middle" x="497.5" y="461.5">]</text>
<rect rx="6" ry="6" x="529.0" y="439.0" width="55" height="45" class="trans" />
<text text-anchor="middle" dominant-baseline="middle" x="556.5" y="461.5">n</text>
<rect rx="6" ry="6" x="588.0" y="439.0" width="55" height="45" class="" />
<text text-anchor="middle" dominant-baseline="middle" x="615.5" y="461.5">_</text>
<rect rx="6" ry="6" x="647.0" y="439.0" width="55" height="45" class="" />
<text text-anchor="middle" dominant-baseline="middle" x="674.5" y="461.5">+</text>
<rect rx="6" ry="6" x="706.0" y="439.0" width="55" height="45" class="" />
<text text-anchor="middle" dominant-baseline="middle" x="733.5" y="461.5">{</text>
<rect rx="6" ry="6" x="765.0" y="439.0" width="55" height="45" class="" />
<text text-anchor="middle" dominant-baseline="middle" x="792.5" y="461.5">}</text>
<rect rx="6" ry="6" x="824.0" y="439.0" width="55" height="45" class="" />
<text text-anchor="middle" dominant-baseline="middle" x="851.5" y="461.5">|</text>
<rect rx="6" ry="6" x="206.5" y="488.0" width="55" height="45" class="trans" />
<text text-anchor="middle" dominant-baseline="middle" x="234.0" y="510.5">alt</text>
<rect rx="6" ry="6" x="265.5" y="488.0" width="55" height="45" class="trans" />
<text text-anchor="middle" dominant-baseline="middle" x="293.0" y="510.5">gui</text>
<rect rx="6" ry="6" x="324.5" y="488.0" width="55" height="45" class="held" />
<text text-anchor="middle" dominant-baseline="middle" x="352.0" y="510.5">lower</text>
<rect rx="6" ry="6" x="383.5" y="488.0" width="55" height="45" class="trans" />
<text text-anchor="middle" dominant-baseline="middle" x="411.0" y="510.5">space</text>
<rect rx="6" ry="6" x="470.0" y="488.0" width="55" height="45" class="trans" />
<text text-anchor="middle" dominant-baseline="middle" x="497.5" y="510.5">enter</text>
<rect rx="6" ry="6" x="529.0" y="488.0" width="55" height="45" class="trans" />
<text text-anchor="middle" dominant-baseline="middle" x="556.5" y="510.5">raise</text>
<rect rx="6" ry="6" x="588.0" y="488.0" width="55" height="45" class="trans" />
<text text-anchor="middle" dominant-baseline="middle" x="615.5" y="510.5">bspc</text>
<rect rx="6" ry="6" x="647.0" y="488.0" width="55" height="45" class="trans" />
<text text-anchor="middle" dominant-baseline="middle" x="674.5" y="510.5">gui</text>
<rect rx="6" ry="6" x="29.5" y="559.5" width="55" height="45" class="trans" />
<text text-anchor="middle" dominant-baseline="middle" x="57.0" y="582.0">esc</text>
<rect rx="6" ry="6" x="88.5" y="559.5" width="55" height="45" class="trans" />
<text text-anchor="middle" dominant-baseline="middle" x="116.0" y="582.0">1</text>
<rect rx="6" ry="6" x="147.5" y="559.5" width="55" height="45" class="trans" />
<text text-anchor="middle" dominant-baseline="middle" x="175.0" y="582.0">2</text>
<rect rx="6" ry="6" x="206.5" y="559.5" width="55" height="45" class="trans" />
<text text-anchor="middle" dominant-baseline="middle" x="234.0" y="582.0">3</text>
<rect rx="6" ry="6" x="265.5" y="559.5" width="55" height="45" class="trans" />
<text text-anchor="middle" dominant-baseline="middle" x="293.0" y="582.0">4</text>
<rect rx="6" ry="6" x="324.5" y="559.5" width="55" height="45" class="trans" />
<text text-anchor="middle" dominant-baseline="middle" x="352.0" y="582.0">5</text>
<rect rx="6" ry="6" x="29.5" y="608.5" width="55" height="45" class="" />
<text text-anchor="middle" dominant-baseline="middle" x="57.0" y="631.0">`</text>
<rect rx="6" ry="6" x="88.5" y="608.5" width="55" height="45" class="" />
<text text-anchor="middle" dominant-baseline="middle" x="116.0" y="631.0">1</text>
<rect rx="6" ry="6" x="147.5" y="608.5" width="55" height="45" class="" />
<text text-anchor="middle" dominant-baseline="middle" x="175.0" y="631.0">2</text>
<rect rx="6" ry="6" x="206.5" y="608.5" width="55" height="45" class="" />
<text text-anchor="middle" dominant-baseline="middle" x="234.0" y="631.0">3</text>
<rect rx="6" ry="6" x="265.5" y="608.5" width="55" height="45" class="" />
<text text-anchor="middle" dominant-baseline="middle" x="293.0" y="631.0">4</text>
<rect rx="6" ry="6" x="324.5" y="608.5" width="55" height="45" class="" />
<text text-anchor="middle" dominant-baseline="middle" x="352.0" y="631.0">5</text>
<rect rx="6" ry="6" x="29.5" y="657.5" width="55" height="45" class="" />
<text text-anchor="middle" dominant-baseline="middle" x="57.0" y="680.0">f1</text>
<rect rx="6" ry="6" x="88.5" y="657.5" width="55" height="45" class="" />
<text text-anchor="middle" dominant-baseline="middle" x="116.0" y="680.0">f2</text>
<rect rx="6" ry="6" x="147.5" y="657.5" width="55" height="45" class="" />
<text text-anchor="middle" dominant-baseline="middle" x="175.0" y="680.0">f3</text>
<rect rx="6" ry="6" x="206.5" y="657.5" width="55" height="45" class="" />
<text text-anchor="middle" dominant-baseline="middle" x="234.0" y="680.0">f4</text>
<rect rx="6" ry="6" x="265.5" y="657.5" width="55" height="45" class="" />
<text text-anchor="middle" dominant-baseline="middle" x="293.0" y="680.0">f5</text>
<rect rx="6" ry="6" x="324.5" y="657.5" width="55" height="45" class="" />
<text text-anchor="middle" dominant-baseline="middle" x="352.0" y="680.0">f6</text>
<rect rx="6" ry="6" x="29.5" y="706.5" width="55" height="45" class="" />
<text text-anchor="middle" dominant-baseline="middle" x="57.0" y="729.0">f7</text>
<rect rx="6" ry="6" x="88.5" y="706.5" width="55" height="45" class="" />
<text text-anchor="middle" dominant-baseline="middle" x="116.0" y="729.0">f8</text>
<rect rx="6" ry="6" x="147.5" y="706.5" width="55" height="45" class="" />
<text text-anchor="middle" dominant-baseline="middle" x="175.0" y="729.0">f9</text>
<rect rx="6" ry="6" x="206.5" y="706.5" width="55" height="45" class="" />
<text text-anchor="middle" dominant-baseline="middle" x="234.0" y="729.0">f10</text>
<rect rx="6" ry="6" x="265.5" y="706.5" width="55" height="45" class="" />
<text text-anchor="middle" dominant-baseline="middle" x="293.0" y="729.0">f11</text>
<rect rx="6" ry="6" x="324.5" y="706.5" width="55" height="45" class="" />
<text text-anchor="middle" dominant-baseline="middle" x="352.0" y="729.0">f12</text>
<rect rx="6" ry="6" x="383.5" y="706.5" width="55" height="45" class="" />
<text text-anchor="middle" dominant-baseline="middle" x="411.0" y="729.0">[</text>
<rect rx="6" ry="6" x="529.0" y="559.5" width="55" height="45" class="trans" />
<text text-anchor="middle" dominant-baseline="middle" x="556.5" y="582.0">6</text>
<rect rx="6" ry="6" x="588.0" y="559.5" width="55" height="45" class="trans" />
<text text-anchor="middle" dominant-baseline="middle" x="615.5" y="582.0">7</text>
<rect rx="6" ry="6" x="647.0" y="559.5" width="55" height="45" class="trans" />
<text text-anchor="middle" dominant-baseline="middle" x="674.5" y="582.0">8</text>
<rect rx="6" ry="6" x="706.0" y="559.5" width="55" height="45" class="trans" />
<text text-anchor="middle" dominant-baseline="middle" x="733.5" y="582.0">9</text>
<rect rx="6" ry="6" x="765.0" y="559.5" width="55" height="45" class="trans" />
<text text-anchor="middle" dominant-baseline="middle" x="792.5" y="582.0">0</text>
<rect rx="6" ry="6" x="824.0" y="559.5" width="55" height="45" class="trans" />
<text text-anchor="middle" dominant-baseline="middle" x="851.5" y="582.0">`</text>
<rect rx="6" ry="6" x="529.0" y="608.5" width="55" height="45" class="" />
<text text-anchor="middle" dominant-baseline="middle" x="556.5" y="631.0">6</text>
<rect rx="6" ry="6" x="588.0" y="608.5" width="55" height="45" class="" />
<text text-anchor="middle" dominant-baseline="middle" x="615.5" y="631.0">7</text>
<rect rx="6" ry="6" x="647.0" y="608.5" width="55" height="45" class="" />
<text text-anchor="middle" dominant-baseline="middle" x="674.5" y="631.0">8</text>
<rect rx="6" ry="6" x="706.0" y="608.5" width="55" height="45" class="" />
<text text-anchor="middle" dominant-baseline="middle" x="733.5" y="631.0">9</text>
<rect rx="6" ry="6" x="765.0" y="608.5" width="55" height="45" class="" />
<text text-anchor="middle" dominant-baseline="middle" x="792.5" y="631.0">0</text>
<rect rx="6" ry="6" x="824.0" y="608.5" width="55" height="45" class="trans" />
<text text-anchor="middle" dominant-baseline="middle" x="851.5" y="631.0">`</text>
<rect rx="6" ry="6" x="529.0" y="657.5" width="55" height="45" class="trans" />
<text text-anchor="middle" dominant-baseline="middle" x="556.5" y="680.0">h</text>
<rect rx="6" ry="6" x="588.0" y="657.5" width="55" height="45" class="" />
<text text-anchor="middle" dominant-baseline="middle" x="615.5" y="680.0">←</text>
<rect rx="6" ry="6" x="647.0" y="657.5" width="55" height="45" class="" />
<text text-anchor="middle" dominant-baseline="middle" x="674.5" y="680.0">↑</text>
<rect rx="6" ry="6" x="706.0" y="657.5" width="55" height="45" class="" />
<text text-anchor="middle" dominant-baseline="middle" x="733.5" y="680.0">↓</text>
<rect rx="6" ry="6" x="765.0" y="657.5" width="55" height="45" class="" />
<text text-anchor="middle" dominant-baseline="middle" x="792.5" y="680.0">→</text>
<rect rx="6" ry="6" x="824.0" y="657.5" width="55" height="45" class="trans" />
<text text-anchor="middle" dominant-baseline="middle" x="851.5" y="680.0">'</text>
<rect rx="6" ry="6" x="470.0" y="706.5" width="55" height="45" class="" />
<text text-anchor="middle" dominant-baseline="middle" x="497.5" y="729.0">]</text>
<rect rx="6" ry="6" x="529.0" y="706.5" width="55" height="45" class="" />
<text text-anchor="middle" dominant-baseline="middle" x="556.5" y="729.0">+</text>
<rect rx="6" ry="6" x="588.0" y="706.5" width="55" height="45" class="" />
<text text-anchor="middle" dominant-baseline="middle" x="615.5" y="729.0">-</text>
<rect rx="6" ry="6" x="647.0" y="706.5" width="55" height="45" class="" />
<text text-anchor="middle" dominant-baseline="middle" x="674.5" y="729.0">=</text>
<rect rx="6" ry="6" x="706.0" y="706.5" width="55" height="45" class="" />
<text text-anchor="middle" dominant-baseline="middle" x="733.5" y="729.0">[</text>
<rect rx="6" ry="6" x="765.0" y="706.5" width="55" height="45" class="" />
<text text-anchor="middle" dominant-baseline="middle" x="792.5" y="729.0">]</text>
<rect rx="6" ry="6" x="824.0" y="706.5" width="55" height="45" class="" />
<text text-anchor="middle" dominant-baseline="middle" x="851.5" y="729.0">\</text>
<rect rx="6" ry="6" x="206.5" y="755.5" width="55" height="45" class="trans" />
<text text-anchor="middle" dominant-baseline="middle" x="234.0" y="778.0">alt</text>
<rect rx="6" ry="6" x="265.5" y="755.5" width="55" height="45" class="trans" />
<text text-anchor="middle" dominant-baseline="middle" x="293.0" y="778.0">gui</text>
<rect rx="6" ry="6" x="324.5" y="755.5" width="55" height="45" class="trans" />
<text text-anchor="middle" dominant-baseline="middle" x="352.0" y="778.0">lower</text>
<rect rx="6" ry="6" x="383.5" y="755.5" width="55" height="45" class="trans" />
<text text-anchor="middle" dominant-baseline="middle" x="411.0" y="778.0">space</text>
<rect rx="6" ry="6" x="470.0" y="755.5" width="55" height="45" class="trans" />
<text text-anchor="middle" dominant-baseline="middle" x="497.5" y="778.0">enter</text>
<rect rx="6" ry="6" x="529.0" y="755.5" width="55" height="45" class="held" />
<text text-anchor="middle" dominant-baseline="middle" x="556.5" y="778.0">raise</text>
<rect rx="6" ry="6" x="588.0" y="755.5" width="55" height="45" class="trans" />
<text text-anchor="middle" dominant-baseline="middle" x="615.5" y="778.0">bspc</text>
<rect rx="6" ry="6" x="647.0" y="755.5" width="55" height="45" class="trans" />
<text text-anchor="middle" dominant-baseline="middle" x="674.5" y="778.0">gui</text>
</svg>
